# xmcd
# Copyright (C) 1995-1998 Ti Kan
#
# Track frame offsets:
#       150
#       15102
#       29775
#       47710
#       60187
#       76097
#       91100
#       108210
#       123850
#       126322
#       146357
#       158935
#       172537
#       185985
#
# Disc length: 2938 seconds
#
# Revision: 2
# Processed by: cddbd v1.4PL0 Copyright (c) Steve Scherf et al.
# Submitted via: CD-Transfer v1.0
#
DISCID=a20b780e
DTITLE=Toxic Guineapigs - Your Own Worst Enemy
DYEAR=2003
DGENRE=
TTITLE0=The World Is At Its Best Now
TTITLE1=Crash Down
TTITLE2=Better With Out You
TTITLE3=Inner Self
TTITLE4=Dishonesty
TTITLE5=That Girl
TTITLE6=Glad To Say Good-Bye
TTITLE7=Staring At The Sky
TTITLE8=I've Got
TTITLE9=Walls Of Ignorance
TTITLE10=Feels Like Heaven (Orig. By Fiction Factory)
TTITLE11=I Was Wrong
TTITLE12=Missed
TTITLE13=Resignation
EXTD=
EXTT0=
EXTT1=
EXTT2=
EXTT3=
EXTT4=
EXTT5=
EXTT6=
EXTT7=
EXTT8=
EXTT9=
EXTT10=
EXTT11=
EXTT12=
EXTT13=
PLAYORDER=
